<svg id="visual" viewBox="0 0 960 540" width="960" height="540" xmlns="http://www.w3.org/2000/svg" xmlns:xlink="http://www.w3.org/1999/xlink" version="1.1"><path d="M0 152L26.7 151.2C53.3 150.3 106.7 148.7 160 146C213.3 143.3 266.7 139.7 320 139.7C373.3 139.7 426.7 143.3 480 147.8C533.3 152.3 586.7 157.7 640 156.7C693.3 155.7 746.7 148.3 800 142C853.3 135.7 906.7 130.3 933.3 127.7L960 125L960 0L933.3 0C906.7 0 853.3 0 800 0C746.7 0 693.3 0 640 0C586.7 0 533.3 0 480 0C426.7 0 373.3 0 320 0C266.7 0 213.3 0 160 0C106.7 0 53.3 0 26.7 0L0 0Z" fill="#a9395e"></path><path d="M0 298L26.7 295.3C53.3 292.7 106.7 287.3 160 291.8C213.3 296.3 266.7 310.7 320 313.3C373.3 316 426.7 307 480 302.5C533.3 298 586.7 298 640 298C693.3 298 746.7 298 800 297.2C853.3 296.3 906.7 294.7 933.3 293.8L960 293L960 123L933.3 125.7C906.7 128.3 853.3 133.7 800 140C746.7 146.3 693.3 153.7 640 154.7C586.7 155.7 533.3 150.3 480 145.8C426.7 141.3 373.3 137.7 320 137.7C266.7 137.7 213.3 141.3 160 144C106.7 146.7 53.3 148.3 26.7 149.2L0 150Z" fill="#e6628d"></path><path d="M0 401L26.7 399.2C53.3 397.3 106.7 393.7 160 393.7C213.3 393.7 266.7 397.3 320 398.2C373.3 399 426.7 397 480 397.8C533.3 398.7 586.7 402.3 640 400.5C693.3 398.7 746.7 391.3 800 389.5C853.3 387.7 906.7 391.3 933.3 393.2L960 395L960 291L933.3 291.8C906.7 292.7 853.3 294.3 800 295.2C746.7 296 693.3 296 640 296C586.7 296 533.3 296 480 300.5C426.7 305 373.3 314 320 311.3C266.7 308.7 213.3 294.3 160 289.8C106.7 285.3 53.3 290.7 26.7 293.3L0 296Z" fill="#ef8cac"></path><path d="M0 471L26.7 470C53.3 469 106.7 467 160 464.3C213.3 461.7 266.7 458.3 320 458.3C373.3 458.3 426.7 461.7 480 463.3C533.3 465 586.7 465 640 463.3C693.3 461.7 746.7 458.3 800 456.7C853.3 455 906.7 455 933.3 455L960 455L960 393L933.3 391.2C906.7 389.3 853.3 385.7 800 387.5C746.7 389.3 693.3 396.7 640 398.5C586.7 400.3 533.3 396.7 480 395.8C426.7 395 373.3 397 320 396.2C266.7 395.3 213.3 391.7 160 391.7C106.7 391.7 53.3 395.3 26.7 397.2L0 399Z" fill="#e6628d"></path><path d="M0 541L26.7 541C53.3 541 106.7 541 160 541C213.3 541 266.7 541 320 541C373.3 541 426.7 541 480 541C533.3 541 586.7 541 640 541C693.3 541 746.7 541 800 541C853.3 541 906.7 541 933.3 541L960 541L960 453L933.3 453C906.7 453 853.3 453 800 454.7C746.7 456.3 693.3 459.7 640 461.3C586.7 463 533.3 463 480 461.3C426.7 459.7 373.3 456.3 320 456.3C266.7 456.3 213.3 459.7 160 462.3C106.7 465 53.3 467 26.7 468L0 469Z" fill="#a9395e"></path></svg>